<svg width="24" height="24" viewBox="0 0 24 24" fill="none" xmlns="http://www.w3.org/2000/svg">
<path d="M22.8669 13.706L21.4797 12.3188C21.2709 12.1097 21.0971 11.8682 20.9651 11.6038L19.6451 8.96383C19.6092 8.89218 19.5568 8.83009 19.4921 8.78267C19.4275 8.73525 19.3525 8.70386 19.2734 8.69109C19.1943 8.67832 19.1133 8.68453 19.037 8.70921C18.9607 8.73389 18.8914 8.77634 18.8348 8.83305C18.7073 8.96043 18.548 9.0514 18.3735 9.09653C18.199 9.14166 18.0156 9.1393 17.8423 9.08972L16.2865 8.64605C16.0375 8.57607 15.7718 8.59705 15.5369 8.70525C15.3021 8.81344 15.1134 9.00177 15.0048 9.23645C14.8962 9.47113 14.8748 9.73682 14.9444 9.98588C15.014 10.2349 15.17 10.4511 15.3845 10.5955L16.1019 11.0722C16.823 11.5549 16.9257 12.5755 16.3121 13.189L16.0677 13.4335C15.8086 13.6926 15.6643 14.0422 15.6643 14.4064V14.9075C15.6643 15.4074 15.5299 15.8963 15.2732 16.3228L13.666 19.0007C13.4369 19.3828 13.1127 19.6991 12.725 19.9186C12.3373 20.1382 11.8993 20.2536 11.4538 20.2535C11.1118 20.2535 10.7838 20.1176 10.542 19.8758C10.3002 19.634 10.1643 19.306 10.1643 18.964V17.5316C10.1643 16.4072 9.4799 15.3964 8.43612 14.9784L7.63556 14.6594C7.0531 14.4262 6.56788 14.0009 6.26041 13.454C5.95295 12.9071 5.84174 12.2715 5.94523 11.6527L5.95379 11.6014C6.0106 11.2614 6.13084 10.9351 6.30823 10.6395L6.41823 10.4562C6.71012 9.9701 7.14511 9.58613 7.66365 9.35683C8.18219 9.12754 8.75893 9.06413 9.3149 9.17527L10.7547 9.46372C11.0935 9.5313 11.4453 9.46885 11.7402 9.28881C12.0351 9.10876 12.2513 8.82431 12.346 8.49205L12.6002 7.59983C12.6883 7.29159 12.6659 6.96227 12.5369 6.66879C12.4079 6.37532 12.1804 6.13614 11.8938 5.9926L11.081 5.58683L10.9698 5.69805C10.7144 5.95341 10.4113 6.15597 10.0776 6.29417C9.74397 6.43237 9.38637 6.5035 9.02523 6.50349H8.80523C8.5009 6.50349 8.21001 6.62572 7.99612 6.83838C7.8001 7.03618 7.53834 7.15523 7.26043 7.17298C6.98252 7.19074 6.70774 7.10596 6.48815 6.93471C6.26855 6.76346 6.11937 6.51762 6.06887 6.24376C6.01837 5.9699 6.07005 5.68703 6.21412 5.44872L7.93868 2.57283C8.11056 2.28696 8.22901 1.97221 8.28823 1.64394M22.8669 13.706C23.1629 11.8203 22.9632 9.89002 22.2873 8.10488C21.6114 6.31974 20.4825 4.74121 19.0118 3.52446C17.541 2.30771 15.779 1.49463 13.8988 1.16513C12.0186 0.835628 10.0851 1.00106 8.28823 1.64516C6.46018 2.30044 4.83818 3.42798 3.58707 4.91321C2.33597 6.39843 1.50034 8.1884 1.16513 10.1012C0.82991 12.014 1.00705 13.9814 1.67854 15.8036C2.35003 17.6258 3.49193 19.2377 4.98821 20.4755C6.48449 21.7134 8.2818 22.5331 10.1975 22.8513C12.1132 23.1695 14.079 22.9749 15.8951 22.2873C17.7112 21.5996 19.313 20.4435 20.5375 18.9362C21.762 17.429 22.5657 15.6245 22.8669 13.706Z" stroke="black" stroke-width="1.83333" stroke-linecap="round" stroke-linejoin="round"/>
</svg>
